<svg width="68" height="64" viewBox="0 0 68 64" fill="none" xmlns="http://www.w3.org/2000/svg">
<path d="M8.5 48V32C8.5 25.6348 11.1866 19.5303 15.9688 15.0294C20.751 10.5286 27.237 8 34 8C40.763 8 47.249 10.5286 52.0312 15.0294C56.8134 19.5303 59.5 25.6348 59.5 32V48M59.5 50.6667C59.5 52.0812 58.903 53.4377 57.8403 54.4379C56.7776 55.4381 55.3362 56 53.8333 56H51C49.4971 56 48.0558 55.4381 46.9931 54.4379C45.9304 53.4377 45.3333 52.0812 45.3333 50.6667V42.6667C45.3333 41.2522 45.9304 39.8956 46.9931 38.8954C48.0558 37.8952 49.4971 37.3333 51 37.3333H59.5V50.6667ZM8.5 50.6667C8.5 52.0812 9.09702 53.4377 10.1597 54.4379C11.2224 55.4381 12.6638 56 14.1667 56H17C18.5029 56 19.9442 55.4381 21.0069 54.4379C22.0696 53.4377 22.6667 52.0812 22.6667 50.6667V42.6667C22.6667 41.2522 22.0696 39.8956 21.0069 38.8954C19.9442 37.8952 18.5029 37.3333 17 37.3333H8.5V50.6667Z" stroke="black" stroke-width="4" stroke-linecap="round" stroke-linejoin="round"/>
</svg>
