<svg width="168" height="168" viewBox="0 0 168 168" fill="none" xmlns="http://www.w3.org/2000/svg">
<path d="M55.9999 59.5C55.9999 55.634 52.8659 52.5 48.9999 52.5C45.1339 52.5 41.9999 55.634 41.9999 59.5V63H38.4999C34.6339 63 31.4999 66.134 31.4999 70C31.4999 73.8661 34.6339 77 38.4999 77H41.9999V80.5C41.9999 84.3661 45.1339 87.5 48.9999 87.5C52.8659 87.5 55.9999 84.3661 55.9999 80.5V77H59.4999C63.3659 77 66.4999 73.8661 66.4999 70C66.4999 66.134 63.3659 63 59.4999 63H55.9999V59.5Z" fill="black"/>
<path d="M126 56C126 59.866 122.866 63 119 63C115.134 63 112 59.866 112 56C112 52.134 115.134 49 119 49C122.866 49 126 52.134 126 56Z" fill="black"/>
<path d="M119 91C122.866 91 126 87.8661 126 84C126 80.1339 122.866 77 119 77C115.134 77 112 80.1339 112 84C112 87.8661 115.134 91 119 91Z" fill="black"/>
<path d="M112 70C112 73.8661 108.866 77 105 77C101.134 77 98 73.8661 98 70C98 66.134 101.134 63 105 63C108.866 63 112 66.134 112 70Z" fill="black"/>
<path d="M133 77C136.866 77 140 73.8661 140 70C140 66.134 136.866 63 133 63C129.134 63 126 66.134 126 70C126 73.8661 129.134 77 133 77Z" fill="black"/>
<path fill-rule="evenodd" clip-rule="evenodd" d="M84 21C71.3153 21 55.7366 22.8072 43.5247 24.5651C27.6014 26.8573 14.6367 38.6187 11.2695 54.5181C9.38518 63.4155 7.53858 73.9354 7.11543 82.7428C6.81202 89.0575 6.14587 97.8817 5.44009 106.346C4.70579 115.153 7.64036 124.225 13.0255 130.677C18.5208 137.261 27.2241 141.699 37.2656 138.889C43.695 137.089 48.8326 132.571 52.6435 128.118C56.5391 123.568 59.6394 118.387 61.8475 114.172C63.5475 110.927 66.5653 109.098 69.4077 109.098H98.5922C101.434 109.098 104.453 110.927 106.152 114.172C108.361 118.387 111.461 123.568 115.356 128.118C119.167 132.571 124.305 137.089 130.734 138.889C140.776 141.699 149.479 137.261 154.974 130.677C160.36 124.225 163.294 115.153 162.56 106.346C161.854 97.8817 161.188 89.0575 160.884 82.7428C160.461 73.9354 158.614 63.4155 156.73 54.5181C153.363 38.6187 140.398 26.8573 124.475 24.5651C112.263 22.8072 96.6847 21 84 21ZM45.5195 38.4222C57.5921 36.6844 72.3576 35 84 35C95.6424 35 110.408 36.6844 122.48 38.4223C132.755 39.9013 140.918 47.4242 143.034 57.4187C144.877 66.1196 146.532 75.7561 146.901 83.4148C147.216 89.992 147.901 99.0241 148.608 107.509C149.038 112.669 147.239 118.096 144.226 121.706C141.322 125.185 137.962 126.374 134.507 125.407C131.948 124.69 129.029 122.563 125.992 119.015C123.04 115.566 120.501 111.392 118.553 107.675C114.83 100.567 107.437 95.0985 98.5922 95.0985H69.4077C60.5625 95.0985 53.17 100.567 49.4462 107.675C47.4991 111.392 44.96 115.566 42.0076 119.015C38.9706 122.563 36.0519 124.69 33.4924 125.407C30.0376 126.374 26.6771 125.185 23.7738 121.706C20.7603 118.096 18.9615 112.669 19.3917 107.509C20.0992 99.0241 20.7833 89.992 21.0993 83.4148C21.4673 75.7561 23.123 66.1196 24.9657 57.4187C27.0824 47.4242 35.2448 39.9013 45.5195 38.4222Z" fill="black"/>
</svg>
