<svg width="60" height="46" viewBox="0 0 60 46" fill="none" xmlns="http://www.w3.org/2000/svg">
<path d="M8.22222 34L19.1111 35.5H30H40.8889L51.7778 34H58V42.4445C58 43.3036 55.2142 44 51.7778 44H8.22222C4.78578 44 2 43.3036 2 42.4445V34H8.22222Z" fill="black"/>
<path d="M49.9167 2H10.8333C7.74974 2 5.25 3.79086 5.25 6V34C5.25 36.2091 7.74974 38 10.8333 38H49.9167C53.0003 38 55.5 36.2091 55.5 34V6C55.5 3.79086 53.0003 2 49.9167 2Z" stroke="black" stroke-width="4" stroke-linecap="round" stroke-linejoin="round"/>
<path d="M8.22222 34L19.1111 35.5H30H40.8889L51.7778 34H58V42.4445C58 43.3036 55.2142 44 51.7778 44H8.22222C4.78578 44 2 43.3036 2 42.4445V34H8.22222Z" stroke="black" stroke-width="4" stroke-linecap="round" stroke-linejoin="round"/>
</svg>
