<svg width="33" height="40" viewBox="0 0 33 40" fill="none" xmlns="http://www.w3.org/2000/svg">
<path d="M14.9792 27.0363L8.51143 37.2097C8.18818 37.6063 7.67577 37.8404 7.07543 37.8656C6.4751 37.8909 5.83051 37.7055 5.26902 37.346L3.41494 36.1673C2.85123 35.8114 2.40984 35.3064 2.17797 34.752C1.9461 34.1977 1.94062 33.6344 2.16261 33.1734L8.63038 23M30.9836 14.5C30.9836 21.4036 25.3872 27 18.4836 27C11.5801 27 5.98365 21.4036 5.98365 14.5C5.98365 7.59644 11.5801 2 18.4836 2C25.3872 2 30.9836 7.59644 30.9836 14.5Z" stroke="black" stroke-width="4" stroke-linecap="round" stroke-linejoin="round"/>
</svg>
