<svg width="90" height="118" viewBox="0 0 90 118" fill="none" xmlns="http://www.w3.org/2000/svg">
<path d="M5.97515 117.75C4.36198 117.75 0 113.408 0 111.822V5.97515C0 4.3345 4.33058 0 5.97515 0H57.6962C58.4734 0 64.2426 2.3297 64.8392 2.9263L85.1516 23.2857C85.7403 23.796 89.074 30.5574 89.074 31.3856V111.818C89.074 113.408 84.712 117.75 83.0988 117.75C81.4856 117.75 5.97515 117.75 5.97515 117.75ZM6.95423 110.847H82.1668V32.3568C82.1668 32.3568 64.3368 32.3568 62.6923 32.3568C61.0477 32.3568 56.7132 28.0223 56.7132 26.3856C56.7132 24.7489 56.7132 6.9032 56.7132 6.9032H6.95423V110.847ZM63.6713 25.4536H78.9789L63.6713 10.0912V25.4536Z" fill="black"/>
</svg>
