<svg width="54" height="73" viewBox="0 0 54 73" fill="none" xmlns="http://www.w3.org/2000/svg">
<path d="M44.2715 0C49.2235 0.000294071 53.3161 3.93642 53.3164 8.88672V63.9824C53.3164 68.933 49.2237 72.8698 44.2715 72.8701H9.04492C4.24722 72.87 0.256245 69.1753 0.0117188 64.4434L0 63.9824V8.88672C0.000275673 3.93632 4.09276 0.000149062 9.04492 0H44.2715ZM9.04492 4C6.21577 4.00015 4.00028 6.23062 4 8.88672V63.9824L4.00684 64.2305C4.1395 66.7763 6.30403 68.87 9.04492 68.8701H44.2715C47.1007 68.8698 49.3164 66.6387 49.3164 63.9824V8.88672C49.3161 6.2307 47.1005 4.00029 44.2715 4H9.04492ZM26.6934 55.0957C27.7977 55.0959 28.6932 55.9914 28.6934 57.0957C28.6934 58.2002 27.7978 59.0955 26.6934 59.0957H26.6582C25.5536 59.0957 24.6582 58.2003 24.6582 57.0957C24.6584 55.9913 25.5537 55.0957 26.6582 55.0957H26.6934ZM39.7021 14.5586C39.9159 14.5643 40.0969 14.5824 40.2451 14.6055C40.319 14.617 40.3852 14.6299 40.4424 14.6426C40.4709 14.6489 40.4981 14.6559 40.5225 14.6621C40.5344 14.6652 40.5466 14.6679 40.5576 14.6709C40.5629 14.6723 40.5682 14.6743 40.5732 14.6758L40.585 14.6787C40.5868 14.6792 40.5888 14.68 40.0918 16.3945L40.5889 14.6797C41.1585 14.8448 41.6261 15.2547 41.8643 15.7979C42.7763 17.8782 42.9617 20.1829 42.4199 22.3623C43.9007 24.2655 44.7202 26.6042 44.7207 29.0303L44.7158 29.4912C44.6218 34.2006 43.0806 37.4376 40.5371 39.5283C38.8934 40.8793 36.9565 41.6393 35.043 42.0898C35.3534 43.0079 35.4815 43.9761 35.4209 44.9434V51.3115C35.4206 52.4158 34.5253 53.3115 33.4209 53.3115C32.3167 53.3113 31.4212 52.4157 31.4209 51.3115V44.915C31.4209 44.8616 31.4235 44.8072 31.4277 44.7539C31.4678 44.2559 31.3985 43.7544 31.2246 43.2822C31.0505 42.8097 30.774 42.3747 30.4111 42.0088C29.8706 41.4635 29.69 40.6564 29.9463 39.9326C30.2028 39.2088 30.8519 38.6956 31.6152 38.6123C34.1626 38.3347 36.4005 37.7497 37.9971 36.4375C39.4884 35.2116 40.7205 33.0949 40.7207 29.0312L40.7119 28.6982C40.6302 27.0376 39.9413 25.4488 38.752 24.2275C38.2086 23.6697 38.038 22.8467 38.3154 22.1191C38.734 21.0227 38.829 19.8444 38.6074 18.7119C37.7832 18.9321 36.4385 19.4604 34.5166 20.7197C34.042 21.0305 33.4576 21.1256 32.9092 20.9805C29.3695 20.0427 25.6363 20.0427 22.0967 20.9805C21.5482 21.1255 20.9638 21.0306 20.4893 20.7197C18.5664 19.4597 17.2215 18.9319 16.3975 18.7119C16.1759 19.8443 16.2719 21.0228 16.6904 22.1191C16.968 22.8468 16.7973 23.6696 16.2539 24.2275C14.9761 25.5398 14.2754 27.2762 14.2852 29.0693V29.0801C14.2852 33.1046 15.5133 35.2081 17.0088 36.4375C18.6123 37.7556 20.8579 38.3545 23.415 38.665C24.1728 38.757 24.8127 39.2722 25.0635 39.9932C25.3141 40.714 25.1326 41.5152 24.5957 42.0576C24.2373 42.4197 23.963 42.8488 23.7891 43.3154C23.6152 43.782 23.5446 44.2784 23.5801 44.7715C23.5835 44.819 23.585 44.8674 23.585 44.915V51.3115C23.5846 52.4158 22.6893 53.3115 21.585 53.3115C20.4808 53.3113 19.5853 52.4157 19.585 51.3115V48.8154C18.3357 48.9686 17.2151 48.9221 16.1982 48.6895C14.5043 48.3018 13.292 47.447 12.3672 46.543C11.9166 46.1025 11.5302 45.6468 11.2021 45.2451C10.849 44.8127 10.6046 44.497 10.3281 44.1797C9.78794 43.5599 9.49679 43.3913 9.27441 43.3369C8.20172 43.0746 7.54469 41.9917 7.80664 40.9189C8.06898 39.8463 9.15091 39.1893 10.2236 39.4512C11.6918 39.81 12.669 40.7775 13.3438 41.5518C13.6749 41.9318 14.0255 42.3789 14.2998 42.7148C14.5992 43.0814 14.874 43.4 15.1631 43.6826C15.7175 44.2246 16.3019 44.6095 17.0908 44.79C17.6769 44.9241 18.4742 44.966 19.5771 44.7744C19.5467 43.8708 19.6811 42.9697 19.9736 42.1133C18.0572 41.6489 16.1153 40.8817 14.4688 39.5283C11.8473 37.3735 10.2852 34.0135 10.2852 29.0801C10.2743 26.6374 11.0933 24.2787 12.584 22.3623C12.0424 20.1831 12.2297 17.878 13.1416 15.7979C13.3797 15.2548 13.8476 14.8449 14.417 14.6797L14.9736 16.6006C14.4447 14.7765 14.4204 14.6839 14.4209 14.6787L14.4326 14.6758C14.4376 14.6744 14.443 14.6724 14.4482 14.6709C14.4592 14.6679 14.4715 14.6652 14.4834 14.6621C14.5077 14.6559 14.535 14.6489 14.5635 14.6426C14.6207 14.6299 14.6869 14.617 14.7607 14.6055C14.9089 14.5824 15.09 14.5644 15.3037 14.5586C15.7329 14.547 16.2876 14.5867 16.9727 14.7354C18.1985 15.0014 19.835 15.6152 21.9355 16.9023C25.598 16.0698 29.4068 16.07 33.0693 16.9023C35.17 15.615 36.8072 15.0015 38.0332 14.7354C38.7182 14.5867 39.273 14.5471 39.7021 14.5586Z" fill="black"/>
</svg>
