<svg width="45" height="62" viewBox="0 0 45 62" fill="none" xmlns="http://www.w3.org/2000/svg">
<path d="M31.7868 0.0136719C32.3258 0.069318 32.8209 0.288452 33.2194 0.619141L33.4108 0.793945L33.4499 0.833984C33.7581 1.16176 33.9722 1.55386 34.0915 1.96582L34.0925 1.96484L38.114 15.583L40.2097 22.4111L40.2311 22.4863C40.4145 23.1793 40.391 23.9168 40.1608 24.5977C39.9414 25.246 39.5333 25.834 38.9675 26.2656L38.9694 26.2676L23.1686 38.9014L26.447 44.5127C26.525 44.4431 26.6086 44.3774 26.6999 44.3203L28.3903 43.2627L31.3493 41.4111L33.5651 40.0234C33.407 39.1002 33.4436 38.151 33.6765 37.25C34.0666 35.7415 34.985 34.4322 36.2751 33.625C37.5713 32.8142 39.1491 32.5732 40.6628 33.0156C42.1763 33.4583 43.4381 34.5295 44.1989 35.9434C44.2023 35.9496 44.2064 35.9566 44.2097 35.9629C44.584 36.6762 44.8208 37.4539 44.9147 38.248C45.0086 39.042 44.9577 39.8441 44.7692 40.6084C44.5807 41.3726 44.2567 42.093 43.8112 42.7256C43.3655 43.3582 42.8033 43.8968 42.153 44.3037C41.5021 44.7109 40.7725 44.979 40.0056 45.083C39.2381 45.187 38.4525 45.1232 37.697 44.8916C36.9415 44.6599 36.2393 44.2677 35.6315 43.7422C35.5921 43.7081 35.5538 43.6718 35.5153 43.6367L35.0309 43.9385L35.6071 45.0537C36.0964 46.0007 35.8103 47.145 34.9499 47.6836L31.9909 49.5342C31.5288 49.8232 30.9613 49.8952 30.4265 49.7334C29.8918 49.5715 29.4382 49.1908 29.1755 48.6826L28.7507 47.8604C28.6605 47.9089 28.5667 47.947 28.4724 47.9795L34.8698 58.9287C35.1859 59.4699 35.1886 60.139 34.8766 60.6826C34.5646 61.2263 33.9849 61.5615 33.3581 61.5615H8.60126L8.48407 61.5576C7.90307 61.5186 7.37612 61.1921 7.08368 60.6826C6.77178 60.139 6.77435 59.4699 7.09052 58.9287L18.2565 39.8145L1.3161 26.2676L1.30634 26.2598C0.73583 25.798 0.340533 25.1739 0.144227 24.4971C-0.0506136 23.8249 -0.0477567 23.1067 0.151063 22.4355H0.150086L2.16376 15.5703L2.16473 15.5674L6.19208 1.92871C6.20161 1.89647 6.21219 1.86375 6.22333 1.83203C6.35703 1.45188 6.57556 1.09405 6.87372 0.794922V0.793945C7.36016 0.305222 8.03408 0.00010723 8.7702 0C9.50648 5.31644e-05 10.1802 0.305092 10.6667 0.793945C10.6799 0.807232 10.6939 0.820336 10.7067 0.833984C11.0145 1.16131 11.229 1.55256 11.3483 1.96387L14.9518 14.1338H25.3317L28.9362 1.92871L28.9675 1.83203C29.1023 1.44867 29.3227 1.08776 29.6247 0.787109V0.788086C30.1107 0.302928 30.7812 1.37998e-05 31.5143 0L31.7868 0.0136719ZM11.6501 58.0615H30.3083L20.9792 42.0938L11.6501 58.0615ZM39.7292 36.9072C39.3262 36.7894 38.862 36.839 38.4343 37.1064C38.0007 37.3777 37.6494 37.8497 37.4968 38.4395C37.3448 39.0274 37.4161 39.632 37.654 40.1152C37.7746 40.348 37.9289 40.5414 38.1022 40.6914C38.2787 40.844 38.4751 40.9526 38.6804 41.0156C38.8856 41.0785 39.1045 41.0975 39.3268 41.0674C39.5498 41.0371 39.7777 40.9574 39.9938 40.8223C40.2103 40.6868 40.4106 40.4991 40.5759 40.2646C40.7411 40.0299 40.8655 39.7566 40.9382 39.4619C41.0107 39.1676 41.0294 38.8632 40.9948 38.5693C40.9602 38.277 40.8739 38.0046 40.7507 37.7686C40.5013 37.3141 40.1273 37.0238 39.7292 36.9072ZM6.00165 16.7002L4.05438 23.3359L20.1423 36.2002L36.2927 23.2852L34.2897 16.7568C34.2877 16.7502 34.2858 16.7429 34.2839 16.7363L31.5085 7.33887L28.7448 16.7002C28.4937 17.55 27.713 18.1337 26.8268 18.1338H13.4577C12.5719 18.1337 11.7912 17.5505 11.5397 16.7012L8.7663 7.33301L6.00165 16.7002Z" fill="black"/>
</svg>
