<svg width="90" height="90" viewBox="0 0 90 90" fill="none" xmlns="http://www.w3.org/2000/svg">
<path d="M45 0C69.8528 0 90 20.1472 90 45C90 69.8528 69.8528 90 45 90C20.1472 90 0 69.8528 0 45C0 20.1472 20.1472 0 45 0ZM45 6C23.4609 6 6 23.4609 6 45C6 66.5391 23.4609 84 45 84C66.5391 84 84 66.5391 84 45C84 23.4609 66.5391 6 45 6Z" fill="white"/>
<path d="M40.6903 54.9091V54.6364C40.7206 51.7424 41.0237 49.4394 41.5994 47.7273C42.1752 46.0152 42.9934 44.6288 44.054 43.5682C45.1146 42.5076 46.3873 41.5303 47.8722 40.6364C48.7661 40.0909 49.5691 39.447 50.2812 38.7045C50.9934 37.947 51.554 37.0758 51.9631 36.0909C52.3873 35.1061 52.5994 34.0152 52.5994 32.8182C52.5994 31.3333 52.2509 30.0455 51.554 28.9545C50.857 27.8636 49.9252 27.0227 48.7585 26.4318C47.5919 25.8409 46.2964 25.5455 44.8722 25.5455C43.6297 25.5455 42.4328 25.803 41.2812 26.3182C40.1297 26.8333 39.1676 27.6439 38.3949 28.75C37.6222 29.8561 37.1752 31.303 37.054 33.0909H31.3267C31.4479 30.5152 32.1146 28.3106 33.3267 26.4773C34.554 24.6439 36.1676 23.2424 38.1676 22.2727C40.1828 21.303 42.4176 20.8182 44.8722 20.8182C47.5388 20.8182 49.857 21.3485 51.8267 22.4091C53.8116 23.4697 55.3419 24.9242 56.4176 26.7727C57.5085 28.6212 58.054 30.7273 58.054 33.0909C58.054 34.7576 57.7964 36.2652 57.2812 37.6136C56.7812 38.9621 56.054 40.1667 55.0994 41.2273C54.16 42.2879 53.0237 43.2273 51.6903 44.0455C50.357 44.8788 49.2888 45.7576 48.4858 46.6818C47.6828 47.5909 47.0994 48.6742 46.7358 49.9318C46.3722 51.1894 46.1752 52.7576 46.1449 54.6364V54.9091H40.6903ZM43.5994 68.3636C42.4782 68.3636 41.5161 67.9621 40.7131 67.1591C39.91 66.3561 39.5085 65.3939 39.5085 64.2727C39.5085 63.1515 39.91 62.1894 40.7131 61.3864C41.5161 60.5833 42.4782 60.1818 43.5994 60.1818C44.7206 60.1818 45.6828 60.5833 46.4858 61.3864C47.2888 62.1894 47.6903 63.1515 47.6903 64.2727C47.6903 65.0152 47.5009 65.697 47.1222 66.3182C46.7585 66.9394 46.2661 67.4394 45.6449 67.8182C45.0388 68.1818 44.357 68.3636 43.5994 68.3636Z" fill="white"/>
</svg>
