<svg width="90" height="90" viewBox="0 0 90 90" fill="none" xmlns="http://www.w3.org/2000/svg">
<path d="M80 0C85.5228 0 90 4.47715 90 10V80C90 85.5228 85.5228 90 80 90H10C4.47715 90 4.02673e-08 85.5228 0 80V10C0 4.47715 4.47715 4.02661e-08 10 0H80ZM14 4C8.47715 4 4 8.47715 4 14V76C4 81.5228 8.47715 86 14 86H76C81.5228 86 86 81.5228 86 76V14C86 8.47715 81.5228 4 76 4H14Z" fill="#D9D9D9"/>
<path d="M45 17C60.464 17 73 29.536 73 45C73 60.464 60.464 73 45 73C29.536 73 17 60.464 17 45C17 29.536 29.536 17 45 17ZM45 21C31.7452 21 21 31.7452 21 45C21 58.2548 31.7452 69 45 69C58.2548 69 69 58.2548 69 45C69 31.7452 58.2548 21 45 21Z" fill="#D9D9D9"/>
<circle cx="74" cy="16" r="5" fill="#D9D9D9"/>
</svg>
